<?xml version="1.0" encoding="UTF-8"?><svg id="b" xmlns="http://www.w3.org/2000/svg" viewBox="0 0 72 72"><polygon points="11.66 21.32 36.59 7.91 60.29 21.55 61.07 49.72 36.48 64.14 10.43 49.72 11.66 21.32" style="fill:#27a0db; opacity:.5;"/><path d="m61.99,21.35c-.02-.06-.05-.12-.07-.17-.02-.05-.03-.1-.06-.14-.03-.05-.07-.09-.11-.14-.03-.04-.06-.09-.1-.13-.03-.03-.08-.06-.12-.09-.05-.04-.1-.09-.15-.12,0,0,0,0,0,0,0,0,0,0,0,0l-24.79-14.17c-.2-.11-.43-.17-.66-.17s-.46.06-.66.17l-24.79,14.17s0,0,0,0c0,0,0,0,0,0-.06.03-.1.08-.15.12-.04.03-.08.06-.12.09-.04.04-.07.08-.1.13-.04.05-.08.09-.11.15-.03.04-.04.09-.06.14-.03.06-.06.12-.07.18-.03.11-.05.23-.05.35v28.35c0,.48.26.92.67,1.15l24.78,14.17s0,0,0,0c0,0,0,0,0,0h0c.09.06.19.1.3.13,0,0,0,0,.01,0,.11.03.23.05.35.05s.23-.02.34-.05c.11-.03.22-.08.32-.13,0,0,0,0,0,0l24.78-14.17c.41-.23.67-.68.67-1.15v-28.35c0-.12-.02-.23-.05-.35Zm-48.19.35l22.12-12.64,22.12,12.64-22.12,12.64-22.12-12.64Zm-1.35,2.29l22.14,12.66v25.29l-22.14-12.66v-25.29Zm24.79,12.66l22.14-12.66v25.29l-22.14,12.66v-25.29Z" style="fill:#27a0db;"/></svg>