<?xml version="1.0" encoding="UTF-8" standalone="no"?>
<svg
   id="b"
   viewBox="0 0 192.18 192.18"
   version="1.1"
   xmlns="http://www.w3.org/2000/svg"
   xmlns:svg="http://www.w3.org/2000/svg">
  <defs
     id="defs43251" />
  <g
     id="g43383"
     transform="matrix(1.4527261,0,0,1.4527261,-19.092989,-52.669156)"
     style="display:none">
    <rect
       x="18.16"
       y="116.61"
       width="122.25495"
       height="45.779999"
       style="fill:#cccbcb;stroke-width:0.884127"
       id="rect43222" />
    <g
       id="g43240">
      <polygon
         points="81.59,140.18 105.74,116.61 101.37,116.61 77.22,140.18 "
         style="fill:#00a2e8"
         id="polygon43224" />
      <polygon
         points="68.23,140.18 92.39,116.61 88.01,116.61 63.86,140.18 "
         style="fill:#00a2e8"
         id="polygon43226" />
      <polygon
         points="54.97,140.18 79.13,116.61 74.75,116.61 50.6,140.18 "
         style="fill:#00a2e8"
         id="polygon43228" />
      <polygon
         points="42.14,140.18 66.29,116.61 61.91,116.61 37.76,140.18 "
         style="fill:#00a2e8"
         id="polygon43230" />
      <polygon
         points="27.8,140.18 51.95,116.61 47.58,116.61 23.43,140.18 "
         style="fill:#00a2e8"
         id="polygon43232" />
      <polygon
         points="18.16,124.07 25.81,116.61 21.44,116.61 18.16,119.81 "
         style="fill:#00a2e8"
         id="polygon43234" />
      <polygon
         points="18.16,137.11 39.16,116.61 34.79,116.61 18.16,132.84 "
         style="fill:#00a2e8"
         id="polygon43236" />
      <polygon
         points="97.86,132.52 90.01,140.18 94.38,140.18 97.86,136.79 "
         style="fill:#00a2e8"
         id="polygon43238" />
    </g>
    <path
       d="m 107.89,124.49 -5.08,13.1 c -1.2,3.1 -3.74,3.1 -4.94,0 l -5.05,-13.11 0.11,-78.6 h 15.07 c 0,0 -0.11,78.61 -0.11,78.61 z"
       style="fill:#808080"
       id="path43242" />
    <path
       d="m 73.23,42.43 v 35.2 c 0,4.69 3.8,8.49 8.49,8.49 h 39.19 c 4.69,0 8.49,-3.8 8.49,-8.49 v -35.2 h -56.18 z"
       style="fill:#cccbcb"
       id="path43244" />
    <path
       d="m 128.85,42.41 v 34.81 c 0,4.6 -3.74,8.34 -8.34,8.34 h -38.38 c -4.6,0 -8.34,-3.74 -8.34,-8.34 v -34.81 h -1.12 v 34.81 c 0,5.22 4.24,9.46 9.46,9.46 h 38.38 c 5.22,0 9.46,-4.24 9.46,-9.46 v -34.81 z"
       style="fill:#808080"
       id="path43246" />
  </g>
  <path
     d="m 33.780867,170.9729 c -7.969847,0 -16.099626,-2.15861 -24.4426442,-7.88111 -2.0790901,-1.41977 -2.7054828,-4.40416 -1.3860603,-6.6642 1.3060954,-2.26002 4.0648895,-2.94093 6.1306525,-1.50667 17.818874,12.19835 35.171285,4.38967 53.536587,-3.89711 18.005454,-8.11292 36.637308,-16.51559 57.121678,-7.3306 2.27901,1.01411 3.35854,3.83914 2.41229,6.31648 -0.93293,2.46286 -3.53179,3.65082 -5.8108,2.62222 -17.08586,-7.64933 -33.238798,-0.39117 -50.324655,7.31612 -12.101375,5.44725 -24.455971,11.02487 -37.237048,11.02487 z"
     style="fill:#7ac943;stroke-width:1.38953"
     id="path43501" />
  <g
     id="g43509"
     transform="matrix(1.4487364,0,0,1.4487364,-14.446991,-45.410355)">
    <path
       d="m 104.9,119.69 -5.08,13.1 c -1.2,3.1 -3.74,3.1 -4.94,0 l -5.05,-13.11 0.11,-78.59 h 15.07 c 0,0 -0.11,78.61 -0.11,78.61 z"
       style="fill:#808080"
       id="path43503" />
    <path
       d="m 70.24,37.64 v 35.19 c 0,4.69 3.8,8.49 8.49,8.49 h 39.19 c 4.69,0 8.49,-3.8 8.49,-8.49 v -35.19 z"
       style="fill:#cccbcb"
       id="path43505" />
    <path
       d="m 125.85,37.62 v 34.8 c 0,4.6 -3.74,8.34 -8.34,8.34 h -38.38 c -4.6,0 -8.34,-3.74 -8.34,-8.34 v -34.8 h -1.12 v 34.8 c 0,5.21 4.24,9.46 9.46,9.46 h 38.38 c 5.22,0 9.46,-4.24 9.46,-9.46 v -34.8 z"
       style="fill:#808080"
       id="path43507" />
  </g>
</svg>
